<?xml version="1.0" encoding="utf-8"?>
<!-- Generator: Adobe Illustrator 19.2.1, SVG Export Plug-In . SVG Version: 6.00 Build 0)  -->
<svg version="1.1" id="layer" xmlns="http://www.w3.org/2000/svg" xmlns:xlink="http://www.w3.org/1999/xlink" x="0px" y="0px"
	 viewBox="0 0 652 652" style="enable-background:new 0 0 652 652;" xml:space="preserve">
<style type="text/css">
	.st0{fill:#000000;}
</style>
<g>
	<path class="st0" d="M290.4,382.6c0,5.9-3,10.3-8.3,12c-2.1,0.7-4.8,1-8.2,1s-6.2-0.3-8.3-1c-5.3-1.7-8.3-6.1-8.3-12
		c0-4.5,2-8.4,5.4-10.4c0.4-0.2,0.7-0.3,1.2-0.3c1.1,0,1.9,0.8,1.9,1.9c0,0.8-0.4,1.4-1.1,1.9c-2.2,1.6-3.3,3.8-3.3,6.8
		c0,4,1.9,6.7,5.6,7.8c1.8,0.6,3.8,0.8,6.9,0.8c3.1,0,5.1-0.2,6.9-0.8c3.6-1.1,5.6-3.9,5.6-7.8c0-3-1-5.2-3.3-6.8
		c-0.7-0.5-1.1-1.1-1.1-1.9c0-1.1,0.8-1.9,1.9-1.9c0.5,0,0.9,0.1,1.2,0.3C288.4,374.2,290.4,378.1,290.4,382.6
		C290.4,382.6,290.4,382.6,290.4,382.6z M275.1,356.2c0,5.9,1.7,8.5,5.7,8.5c4.6,0,5.5-4,5.5-7.3c0-5.3-2.5-8.6-6.6-8.6h-4.6
		L275.1,356.2z M290.4,357.8c0,6.7-3.8,11-9.6,11c-6.2,0-9.6-4.3-9.6-12.2v-8l-2.2,0c-5.4,0-7.7,2.2-7.7,7.7c0,2.7,1,5.4,1.9,6.9
		c0.3,0.4,0.4,0.9,0.4,1.4c0,1.2-0.8,2-2,2c-0.6,0-1.2-0.3-1.7-0.8c-1.7-2.2-2.7-5.9-2.7-9.7c0-8,3.6-11.7,11.5-11.7h12.6
		c1.7,0,2.3-0.2,3.2-0.6l2.3-1.2c0.3-0.1,0.7-0.3,1.1-0.3c1.2,0,2.1,0.9,2.1,2.2c0,0.9-0.4,1.5-1.3,2l-2.2,1.3
		C289.2,350.4,290.4,353.4,290.4,357.8C290.4,357.8,290.4,357.8,290.4,357.8z M290,314.5c0,1.3-0.9,2.1-2.3,2.1h-17.4
		c-6,0-9,2.5-9,7.8c0,4.8,3.4,8.1,8.3,8.1h18.1c1.4,0,2.3,0.8,2.3,2.1c0,1.3-0.9,2.1-2.3,2.1h-27.9c-1.4,0-2.3-0.8-2.3-2.1
		c0-1.3,0.9-2.1,2.3-2.1h1.1c-2.5-1.9-3.8-5-3.8-8.9c0-7.1,4.6-11.3,12.2-11.3h18.3C289.1,312.4,290,313.2,290,314.5L290,314.5z
		 M289.9,294.7v0.8c0,6-2.4,8.3-8.7,8.3h-19.5l0,2.6c0,1.2-0.8,2.1-1.9,2.1c-1.2,0-1.9-0.8-1.9-2.1v-2.5l-8,0
		c-1.4,0-2.3-0.8-2.3-2.1c0-1.3,0.9-2.1,2.3-2.1h8l0-5c0-1.3,0.8-2.1,1.9-2.1c1.2,0,1.9,0.8,1.9,2.1v5l19.4,0c3.8,0,4.7-1,4.7-4.9
		c0-1.3,0.8-2.2,2.1-2.2C289.1,292.5,289.9,293.3,289.9,294.7L289.9,294.7L289.9,294.7z M261.3,276.8c0,3.8,2,6.7,5.6,7.9
		c1.8,0.6,3.7,0.8,6.9,0.8c3.2,0,5.1-0.2,6.9-0.8c3.5-1.2,5.6-4.1,5.6-7.9c0-3.9-2-6.8-5.6-7.9c-1.8-0.6-3.7-0.8-6.9-0.8
		c-3.1,0-5.1,0.2-6.9,0.8C263.3,270,261.3,272.8,261.3,276.8L261.3,276.8z M290.4,276.8c0,5.9-3,10.2-8.3,12
		c-2.4,0.8-4.8,1.1-8.3,1.1c-3.4,0-5.8-0.3-8.2-1.1c-5.3-1.7-8.3-6.1-8.3-12c0-5.9,3-10.3,8.3-12c2.4-0.8,4.8-1.1,8.2-1.1
		c3.5,0,5.8,0.3,8.3,1.1C287.3,266.5,290.4,270.9,290.4,276.8L290.4,276.8L290.4,276.8z M290,235.5c0,1.3-0.9,2.1-2.3,2.1h-17.4
		c-6,0-9,2.6-9,7.8c0,4.8,3.4,8.1,8.3,8.1h18.1c1.4,0,2.3,0.8,2.3,2.1c0,1.3-0.9,2.1-2.3,2.1h-27.9c-1.4,0-2.3-0.8-2.3-2.1
		c0-1.3,0.9-2.1,2.3-2.1h1.1c-2.5-2-3.8-5-3.8-8.9c0-7.1,4.6-11.3,12.2-11.3h18.3C289.1,233.3,290,234.1,290,235.5
		C290,235.4,290,235.5,290,235.5z M261.3,203.4c0,3.8,1.9,6.5,5.4,7.6c1.8,0.6,3.8,0.8,7.1,0.8c3.3,0,5.3-0.2,7.1-0.8
		c3.5-1.1,5.4-3.9,5.4-7.6c0-3.9-1.8-6.5-5.2-7.7c-1.6-0.5-4.2-0.8-7.3-0.8c-3.1,0-5.7,0.3-7.3,0.8
		C263.1,196.9,261.3,199.6,261.3,203.4C261.3,203.4,261.3,203.4,261.3,203.4z M290.4,204c0,5.4-2.8,9.3-8,11.1
		c-2.6,0.8-5.1,1.1-8.7,1.1c-3.5,0-6-0.3-8.6-1.1c-5.1-1.7-8-5.6-8-11.1c0-4.2,1.2-7.2,3.8-9h-14.4c-1.4,0-2.3-0.8-2.3-2.1
		s0.9-2.1,2.3-2.1h41.1c1.4,0,2.3,0.8,2.3,2.1c0,1.3-0.9,2.1-2.3,2.1h-1.2C289.1,196.9,290.4,199.8,290.4,204L290.4,204z M261.2,172
		c0,4,2,6.8,5.6,7.9c1.2,0.4,2.6,0.6,4.3,0.6l0-17.1c-1.8,0-3.1,0.1-4.4,0.5C263.2,165.1,261.2,168,261.2,172
		C261.2,172,261.2,172,261.2,172z M290.4,171.6c0,6.2-2.9,10.4-8.4,12.2c-2.2,0.7-4.5,1-8.2,1c-3.7,0-6-0.3-8.2-1
		c-5.3-1.7-8.3-6-8.3-11.8c0-5.8,3-10.2,8.3-11.9c2-0.7,4.4-1,7.6-1c1.2,0,2,0.8,2,2v19.4c2.6,0,3.9-0.1,5.3-0.6
		c3.8-1.3,5.8-4.2,5.8-8.5c0-3.4-1-5.8-3.4-8.2c-0.5-0.5-0.8-1-0.8-1.6c0-1.1,0.8-1.9,1.9-1.9c0.5,0,1,0.2,1.4,0.5
		C288.6,162.8,290.4,166.8,290.4,171.6C290.4,171.6,290.4,171.6,290.4,171.6z M390.2,364.7l-77,29.6c-1.1,0.4-1.9,0.6-2.8,0.6
		c-2.4,0-4.9-1.7-4.9-5.1c0-2.6,1.7-4.1,3.7-4.9l70.5-27v-0.2l-70.5-26.4c-2.1-0.7-3.7-2.2-3.7-4.9c0-3.4,2.4-5.1,4.9-5.1
		c0.9,0,1.7,0.2,2.8,0.6l77,29.6c4.7,1.7,6.2,3.4,6.2,6.6C396.4,361.3,394.9,363,390.2,364.7L390.2,364.7L390.2,364.7z M368.1,258.9
		h-13.3c-0.7,0-1.1,0.4-1.1,1.1v21.4c0,17.8,5.4,25.3,17.4,25.3c11.1,0,16.9-7.7,16.9-22.1C388,269.2,380.5,258.9,368.1,258.9
		L368.1,258.9L368.1,258.9z M391.5,243c2.8,0,4.9,2.1,4.9,5.2c0,2.1-0.9,3.6-3.2,4.9l-7.1,4.3v0.4c7.3,6.6,11.4,14.4,11.4,28.5
		c0,17.2-9.4,30.5-26.4,30.5c-17.6,0-26.6-12.4-26.6-33.9V260c0-0.8-0.4-1.1-1.1-1.1H337c-14.8,0-23.1,5.6-23.1,23.2
		c0,7.7,2.6,15.4,5.6,20.4c0.7,1.1,1.1,2.4,1.1,3.6c0,2.8-1.9,4.7-4.7,4.7c-1.5,0-3-0.7-4.1-2.1c-4.1-5.4-7.5-15-7.5-27.2
		c0-22.1,9.9-32.4,31.9-32.4h36.2c5.1,0,6.9-0.6,9.6-1.9l6.7-3.6C389.5,243.3,390.6,243,391.5,243L391.5,243L391.5,243z M391,169.5
		h-6.2v0.2c8.1,5.1,12.7,13.5,12.7,26c0,19.7-12.4,30.9-34.1,30.9H311c-3.6,0-5.4-2.1-5.4-5.1c0-3,1.9-5.1,5.4-5.1h50
		c17.8,0,26.8-7.5,26.8-23c0-13.5-9.6-24-24.9-24H311c-3.6,0-5.4-2.1-5.4-5.1c0-3,1.9-5.1,5.4-5.1h80c3.6,0,5.4,2.1,5.4,5.1
		C396.4,167.4,394.5,169.5,391,169.5z M372.2,84.5c-4.9-1.5-12.4-2.2-21.4-2.2c-8.8,0-16.3,0.8-21.2,2.2
		c-10.5,3.6-15.6,11.8-15.6,23c0,11.4,6,19.5,16.1,22.9c5.8,1.9,11.8,2.4,20.6,2.4c9,0,15-0.6,20.8-2.4
		c10.1-3.4,16.1-11.4,16.1-22.9C387.8,96.3,382.7,88,372.2,84.5L372.2,84.5L372.2,84.5z M391,82.2h-6.6v0.2
		c7.7,4.3,13.1,12.2,13.1,26.8c0,15.2-8.1,26-22.1,30.7c-7.3,2.2-14.2,3.2-24.5,3.2c-10.1,0-17.1-0.9-24.4-3.2
		c-14.1-4.7-22.1-15.6-22.1-30.7c0-14.6,5.4-22.5,13.1-26.8v-0.2h-44.6c-3.6,0-5.4-2.1-5.4-5.1c0-3,1.9-5.1,5.4-5.1H391
		c3.6,0,5.4,2.1,5.4,5.1C396.4,80.1,394.5,82.2,391,82.2C391,82.2,391,82.2,391,82.2z M352.5,456.5c0-0.5,0.3-0.8,0.8-0.8h7.4
		c0.6,0,0.9,0.4,0.9,0.9c0,0.5-0.4,0.9-0.9,0.9h-6.2c-0.1,0-0.1,0-0.1,0.1v4.2c0,0.1,0,0.1,0.1,0.1h5.2c0.6,0,0.9,0.4,0.9,0.9
		c0,0.5-0.4,0.9-0.9,0.9h-5.2c-0.1,0-0.1,0-0.1,0.1v4.4c0,0.1,0,0.1,0.1,0.1h6.2c0.6,0,0.9,0.4,0.9,0.9c0,0.5-0.4,0.9-0.9,0.9h-7.4
		c-0.5,0-0.8-0.3-0.8-0.8L352.5,456.5L352.5,456.5z M345.8,456.6c0-0.6,0.4-1,0.9-1c0.5,0,0.9,0.4,0.9,1v12.5c0,0.6-0.4,1-0.9,1
		c-0.6,0-0.9-0.4-0.9-1V456.6L345.8,456.6z M339.6,459.8c0-1.5-1-2.4-2.7-2.4h-3.4c-0.1,0-0.1,0-0.1,0.1v4.5c0,0.1,0,0.1,0.1,0.1
		h3.4C338.6,462.2,339.6,461.3,339.6,459.8L339.6,459.8z M331.6,469.1v-12.6c0-0.5,0.3-0.8,0.8-0.8h4.5c2.8,0,4.5,1.6,4.5,4.1
		c0,1.9-1,3.3-2.7,3.9l2.6,5.1c0.1,0.2,0.1,0.3,0.1,0.5c0,0.5-0.3,0.9-0.9,0.9c-0.4,0-0.7-0.2-0.9-0.6l-2.8-5.6h-3.2
		c-0.1,0-0.1,0-0.1,0.1v5c0,0.6-0.4,1-0.9,1C332,470.1,331.6,469.8,331.6,469.1L331.6,469.1L331.6,469.1z M327.3,455.7
		c0.6,0,0.9,0.4,0.9,0.9c0,0.5-0.4,0.9-0.9,0.9h-3.3c-0.1,0-0.1,0-0.1,0.1v11.6c0,0.6-0.4,1-0.9,1c-0.6,0-0.9-0.4-0.9-1v-11.6
		c0-0.1,0-0.1-0.1-0.1h-3.3c-0.6,0-0.9-0.4-0.9-0.9c0-0.5,0.4-0.9,0.9-0.9H327.3z M313.5,465l-2.3-6.5h-0.1l-2.3,6.5H313.5z
		 M305.6,468.8l4.4-12.2c0.2-0.7,0.6-1.1,1.2-1.1c0.6,0,1,0.4,1.3,1.1l4.3,12.2c0,0.1,0.1,0.3,0.1,0.4c0,0.5-0.4,0.9-0.9,0.9
		c-0.4,0-0.8-0.2-0.9-0.7l-1-2.8h-5.9l-1,2.8c-0.1,0.4-0.5,0.7-0.9,0.7c-0.5,0-0.9-0.3-0.9-0.9C305.5,469.1,305.5,469,305.6,468.8z
		 M302.2,460c0-1.6-1-2.5-2.8-2.5h-3.2c-0.1,0-0.1,0-0.1,0.1v4.8c0,0.1,0,0.1,0.1,0.1h3.2C301.2,462.5,302.2,461.5,302.2,460
		L302.2,460L302.2,460z M294.2,456.5c0-0.5,0.3-0.8,0.8-0.8h4.4c2.9,0,4.6,1.7,4.6,4.3c0,2.6-1.7,4.3-4.6,4.3h-3.3
		c-0.1,0-0.1,0-0.1,0.1v4.7c0,0.6-0.4,1-0.9,1c-0.6,0-0.9-0.4-0.9-1L294.2,456.5L294.2,456.5L294.2,456.5z M335.3,442.3
		c0.4,0,0.7,0.3,0.7,0.7c0,0.3-0.3,0.6-0.7,0.6h-2.3c-0.1,0-0.1,0-0.1,0.1v7.3c0,0.4-0.3,0.7-0.7,0.7c-0.4,0-0.7-0.3-0.7-0.7v-7.3
		c0-0.1,0-0.1-0.1-0.1h-2.3c-0.4,0-0.7-0.3-0.7-0.6c0-0.3,0.3-0.7,0.7-0.7H335.3L335.3,442.3z M320.1,442.9c0-0.3,0.2-0.6,0.6-0.6
		h5.1c0.4,0,0.6,0.3,0.6,0.6c0,0.3-0.2,0.7-0.6,0.7h-4.2c-0.1,0-0.1,0-0.1,0.1v2.5c0,0.1,0,0.1,0.1,0.1h3.5c0.4,0,0.6,0.3,0.6,0.6
		c0,0.3-0.2,0.7-0.6,0.7h-3.5c-0.1,0-0.1,0-0.1,0.1v2.6c0,0.1,0,0.1,0.1,0.1h4.2c0.4,0,0.6,0.3,0.6,0.6c0,0.3-0.2,0.7-0.6,0.7h-5.1
		c-0.4,0-0.6-0.2-0.6-0.6V442.9L320.1,442.9z M365.3,419.4c0.1-0.2,0.3-0.3,0.6-0.3c0.4,0,0.7,0.3,0.7,0.7c0,0.2-0.1,0.4-0.2,0.5
		l-1.5,1.6c-0.2,0.2-0.4,0.3-0.6,0.3c-0.4,0-0.7-0.3-0.7-0.7c0-0.2,0.1-0.4,0.2-0.6L365.3,419.4L365.3,419.4L365.3,419.4z
		 M359.9,424.7c0-0.5,0.3-0.8,0.8-0.8h7.4c0.6,0,0.9,0.4,0.9,0.9c0,0.5-0.4,0.9-0.9,0.9h-6.2c-0.1,0-0.1,0-0.1,0.1v4.2
		c0,0.1,0,0.1,0.1,0.1h5.2c0.6,0,0.9,0.4,0.9,0.9c0,0.5-0.4,0.9-0.9,0.9h-5.2c-0.1,0-0.1,0-0.1,0.1v4.4c0,0.1,0,0.1,0.1,0.1h6.2
		c0.6,0,0.9,0.4,0.9,0.9c0,0.5-0.4,0.9-0.9,0.9h-7.4c-0.5,0-0.8-0.3-0.8-0.8V424.7L359.9,424.7L359.9,424.7z M355.6,423.9
		c0.6,0,0.9,0.4,0.9,0.9c0,0.5-0.4,0.9-0.9,0.9h-3.3c-0.1,0-0.1,0-0.1,0.1v11.6c0,0.6-0.4,1-0.9,1c-0.6,0-0.9-0.4-0.9-1v-11.6
		c0-0.1,0-0.1-0.1-0.1h-3.3c-0.6,0-0.9-0.4-0.9-0.9c0-0.5,0.4-0.9,0.9-0.9L355.6,423.9L355.6,423.9z M341.2,428c0-1.5-1-2.4-2.7-2.4
		h-3.4c-0.1,0-0.1,0-0.1,0.1v4.5c0,0.1,0,0.1,0.1,0.1h3.4C340.2,430.4,341.2,429.5,341.2,428L341.2,428z M333.2,437.3v-12.6
		c0-0.5,0.3-0.8,0.8-0.8h4.5c2.8,0,4.5,1.6,4.5,4.1c0,1.9-1,3.3-2.7,3.9l2.6,5.1c0.1,0.2,0.1,0.3,0.1,0.5c0,0.5-0.3,0.9-0.9,0.9
		c-0.4,0-0.7-0.2-0.9-0.6l-2.8-5.6h-3.2c-0.1,0-0.1,0-0.1,0.1v5c0,0.6-0.4,1-0.9,1C333.6,438.3,333.2,437.9,333.2,437.3L333.2,437.3
		L333.2,437.3z M320.1,424.7c0-0.5,0.3-0.8,0.8-0.8h7.4c0.6,0,0.9,0.4,0.9,0.9c0,0.5-0.4,0.9-0.9,0.9h-6.2c-0.1,0-0.1,0-0.1,0.1v4.2
		c0,0.1,0,0.1,0.1,0.1h5.2c0.6,0,0.9,0.4,0.9,0.9c0,0.5-0.4,0.9-0.9,0.9h-5.2c-0.1,0-0.1,0-0.1,0.1v4.4c0,0.1,0,0.1,0.1,0.1h6.2
		c0.6,0,0.9,0.4,0.9,0.9c0,0.5-0.4,0.9-0.9,0.9h-7.4c-0.5,0-0.8-0.3-0.8-0.8L320.1,424.7L320.1,424.7L320.1,424.7z M308.1,436.5h3.4
		c1.7,0,2.6-0.9,2.6-2.4c0-1.4-0.9-2.4-2.6-2.4h-3.4c-0.1,0-0.1,0-0.1,0.1v4.5C307.9,436.4,308,436.5,308.1,436.5z M311.3,430
		c1.6,0,2.5-0.9,2.5-2.2c0-1.4-0.9-2.3-2.5-2.3h-3.2c-0.1,0-0.1,0-0.1,0.1v4.2c0,0.1,0,0.1,0.1,0.1L311.3,430L311.3,430z
		 M306.1,424.7c0-0.5,0.3-0.8,0.8-0.8h4.4c2.9,0,4.3,1.5,4.3,3.8c0,1.7-0.8,2.7-1.9,3.1v0c1,0.3,2.2,1.4,2.2,3.3
		c0,2.7-1.7,4.1-4.6,4.1h-4.4c-0.5,0-0.8-0.3-0.8-0.8V424.7L306.1,424.7L306.1,424.7z M299.4,424.8c0-0.6,0.4-1,0.9-1
		c0.5,0,0.9,0.4,0.9,1v12.5c0,0.6-0.4,1-0.9,1c-0.6,0-0.9-0.4-0.9-1V424.8z M286.8,424.8c0-0.6,0.4-1,0.9-1c0.5,0,0.9,0.4,0.9,1
		v11.6c0,0.1,0,0.1,0.1,0.1h6.2c0.6,0,0.9,0.4,0.9,0.9c0,0.5-0.4,0.9-0.9,0.9h-7.3c-0.6,0-0.9-0.4-0.9-0.9V424.8L286.8,424.8z"/>
	<path class="st0" d="M392.6,427.8c-0.3,12.5-1,23.9-2.3,33.9c-0.6,5.1-1.6,10.2-2.9,15.4H268.2c-1.3-5.1-2.2-10.3-2.9-15.5
		c-1.6-12.6-2.2-25.4-2.4-33.9c-0.1-6-0.1-10.8-0.1-13.4h129.8C392.7,417,392.7,421.8,392.6,427.8L392.6,427.8z M383.2,490.9
		l-6.6-9.1h9.6C385.3,484.8,384.3,487.9,383.2,490.9L383.2,490.9L383.2,490.9z M301.1,481.8l47.4,65.2c-1.5,1.7-3.1,3.5-4.7,5.2
		l-51.1-70.4L301.1,481.8L301.1,481.8z M313.1,481.8l41.8,57.6c-1.5,1.8-3,3.6-4.5,5.4l-45.8-63L313.1,481.8L313.1,481.8z
		 M325.1,481.8l36,49.6c-1.4,1.9-2.8,3.8-4.3,5.7l-40.2-55.3C316.7,481.8,325.1,481.8,325.1,481.8z M337.1,481.8l29.9,41.2
		c-1.3,2-2.7,4-4.1,6l-34.3-47.2L337.1,481.8L337.1,481.8z M349.1,481.8l23.4,32.3c-1.2,2.1-2.5,4.3-3.8,6.3l-28-38.6H349.1
		C349.1,481.8,349.1,481.8,349.1,481.8z M361,481.8l16.5,22.7c-1.1,2.3-2.3,4.6-3.5,6.8l-21.4-29.5H361L361,481.8z M373,481.8
		l9,12.4c-1,2.5-2,4.9-3.1,7.3l-14.3-19.7H373L373,481.8z M337,559.3l-56.3-77.5h8.4l52.7,72.5c-0.4,0.4-0.8,0.8-1.2,1.2
		C339.3,556.9,338.1,558.1,337,559.3L337,559.3L337,559.3z M331.7,564.7c-0.5,0.5-1.1,1-1.7,1.5L270,483.5c-0.2-0.6-0.4-1.2-0.5-1.7
		h7.7l57.9,79.6C333.8,562.6,332.7,563.8,331.7,564.7L331.7,564.7z M317.6,558.3c-0.8-0.9-1.7-1.8-2.6-2.8
		c-14.4-14.9-25.3-29.3-33.3-44c-3.3-6.1-6.2-12.4-8.7-18.9l54.3,74.7c-0.6-0.3-1.7-1-3.4-2.6C322.2,563.1,320.1,560.8,317.6,558.3
		L317.6,558.3L317.6,558.3z M397.2,412c0-1.2-1.1-2.2-2.3-2.2H260.6c-1.2,0-2.3,1-2.3,2.2c0,0.1-0.2,6.5,0,15.9
		c0.2,8.6,0.8,21.6,2.4,34.4c0.6,4.9,1.5,9.8,2.7,14.9h0l0.7,2.9l0,0v0c3,11.5,7.5,22.9,13.4,33.7c8.2,15.1,19.4,29.8,34,45
		c0.9,1,1.8,1.9,2.6,2.7c2.5,2.6,4.7,4.9,6.5,6.6c2.9,2.7,4.9,3.9,6.9,4l0.2,0l0.2,0c2-0.1,4-1.3,6.8-4c1.5-1.4,3.3-3.3,5.3-5.4
		c1.2-1.2,2.4-2.5,3.8-3.9c14.6-15.3,25.8-30,34-45c5.9-10.8,10.5-22.1,13.5-33.7l0.8-2.9h0c1.2-5,2.1-10,2.8-14.9
		c1.2-10.2,2-21.8,2.3-34.4C397.4,418.5,397.2,412,397.2,412L397.2,412L397.2,412z"/>
</g>
</svg>
