<?xml version="1.0" encoding="utf-8"?>
<!-- Generator: Adobe Illustrator 22.0.1, SVG Export Plug-In . SVG Version: 6.00 Build 0)  -->
<svg version="1.1" xmlns="http://www.w3.org/2000/svg" xmlns:xlink="http://www.w3.org/1999/xlink" x="0px" y="0px"
	 viewBox="0 0 496.5 75.2" style="enable-background:new 0 0 496.5 75.2;" xml:space="preserve">
<style type="text/css">
	.st0{fill:#010202;}
</style>
<g id="_x2B__LAB_1">
	<g>
		<polygon class="st0" points="7.9,54.8 29.6,54.8 29.6,47.6 7.9,47.6 7.9,37.1 31.2,37.1 31.2,30 0,30 0,74.4 31.6,74.4 31.6,67.2 
			7.9,67.2 		"/>
		<path class="st0" d="M67.7,33.4C64,30.2,58.8,30,53.3,30H38.5v44.4h7.9v-17h6.8c5.5,0,10.7-0.3,14.4-3.4c2.8-2.4,4.4-6.2,4.4-10.4
			C72.1,39.4,70.4,35.7,67.7,33.4z M60.7,49.2c-1.3,0.6-3.1,0.9-6.3,0.9h-8V37h8c3.2,0,5,0.3,6.3,0.9c2,0.9,3.2,3.1,3.2,5.7
			C63.9,46.2,62.7,48.3,60.7,49.2z"/>
		<polygon class="st0" points="77.3,74.4 85.2,74.4 85.2,55.1 104.6,55.1 104.6,48 85.2,48 85.2,37.1 106.1,37.1 106.1,30 77.3,30 
					"/>
		<polygon class="st0" points="120.1,30 112.2,30 112.2,74.4 143.9,74.4 143.9,67.2 120.1,67.2 		"/>
		<path class="st0" d="M204.5,54.8h21.7v-7.2h-21.7V37.1h23.3V30h-27.9v-4.7c0-1.5-1.2-2.8-2.8-2.8c0,0-15.3,0-19.5,0
			c0-4.3,0-19.6,0-19.6c0-1.5-1.2-2.8-2.8-2.8h-12.6c-1.5,0-2.8,1.2-2.8,2.8c0,0,0,15.4,0,19.6c-4.3,0-19.6,0-19.6,0
			c-1.5,0-2.8,1.3-2.8,2.8v12.3c0,1.5,1.3,2.8,2.8,2.8c0,0,15.4,0,19.6,0c0,4.3,0,19.6,0,19.6c0,1.5,1.3,2.8,2.8,2.8h12.6
			c1.5,0,2.8-1.3,2.8-2.8c0,0,0-15.4,0-19.6h19v33.9h31.6v-7.2h-23.7V54.8z"/>
		<path class="st0" d="M253.7,36.1c5.6,0,9.6,3,10.7,9l8.2-1.3c-1.8-8.9-8.8-14.7-18.9-14.7c-12.2,0-20.8,8.5-20.8,22.7
			c0,14.6,8.1,23.3,20.5,23.3c11.8,0,17.6-7.5,19.1-15.3l-8.2-1c-1.1,6-5.2,9.2-10.7,9.2c-7.7,0-12.5-5.9-12.5-16.2
			C241.2,42,246.1,36.1,253.7,36.1z"/>
		<path class="st0" d="M290.3,30l-17.1,44.4h8l4-10.9h18l4,10.9h8.5L298.6,30H290.3z M287.7,56.8l4.9-13.4c0.8-2.1,1.8-5.2,1.8-5.2
			h0.1c0,0,1,3.4,1.7,5.2l4.8,13.4H287.7z"/>
		<polygon class="st0" points="328,30 320.1,30 320.1,74.4 351.7,74.4 351.7,67.2 328,67.2 		"/>
		<path class="st0" d="M491.2,28c2.8-3.1,4.2-6.5,4.2-11.1c0-6-3.1-12-8.9-14.9c-4-2-7-2-13-2h-20c-4,0-6,3-6,6v40L430.9,5.1
			C429.7,2.2,428.8,0,425,0h-8.9c-3.7,0-4.9,2.2-6,5.1L394.5,45c0-3-1.4-6-6.9-6h-14.1V6.7c0-3.6-2.2-6.7-6.8-6.7h-7.4
			c-4.6,0-6.8,3.1-6.8,6.7v45.6c0,3.6,2.2,6.7,6.8,6.7h29.2c3.8,0,4.7-1.8,5-2.9c0.3,1.1,1.2,2.9,5,2.9h7.6c3.1,0,4.9-0.5,6.4-3.9
			l3.1-7.1h9.9l3.1,7.1c1.5,3.4,3.3,3.9,6.4,3.9h8.5c3.8,0,4.7-1.8,5-2.9c0.3,1.1,1.2,2.9,5,2.9h20c6,0,10-1,14-3
			c5.6-2.8,9-9.1,9-15.5C496.5,35.3,494.8,31.5,491.2,28z"/>
	</g>
</g>
<g id="Info">
</g>
</svg>
