<?xml version="1.0" encoding="utf-8"?>
<!-- Generator: Adobe Illustrator 26.0.3, SVG Export Plug-In . SVG Version: 6.00 Build 0)  -->
<svg version="1.1" id="Calque_2" xmlns="http://www.w3.org/2000/svg" xmlns:xlink="http://www.w3.org/1999/xlink" x="0px" y="0px"
	 width="140px" height="284px" viewBox="0 0 140 284" style="enable-background:new 0 0 140 284;" xml:space="preserve">
<style type="text/css">
	.st0{fill:#171717;}
	.st1{fill:#FFFFFF;}
</style>
<g>
	<g>
		<g>
			<polygon class="st0" points="0,0 0,284 139.9,271.8 139.9,0 			"/>
		</g>
	</g>
	<g>
		<g>
			<path class="st1" d="M44.6,203.2H20.8c-1.9,4.4-3.4,10.1-4.1,17.3c-2,18.9,13.8,22.3,19,22.9c1.9,12.8-15.8,13-15.8,13v1.7H56
				v-1.7h0c0,0-17.7-0.2-15.8-13c5.1-0.6,21.1-3.9,19.1-22.9c-0.6-6.1-1.8-11.2-3.3-15.3c-1.3,0.7-2.8,1.1-4.4,1.1
				C48.8,206.4,46.3,205.2,44.6,203.2z M26.8,219.1c-2.8,0-5-2.3-5-5c0-2.8,2.3-5,5-5c2.8,0,5,2.3,5,5
				C31.8,216.9,29.5,219.1,26.8,219.1z M38.7,208.3h1.9l-6.7,17.3h4.3v1.8h-6.9L38.7,208.3z M50.3,229.4l-1.3-1.3
				c-0.2,1.6-0.9,5-4.4,7.6c-2.3,1.7-6,3-10.4,1.5v-1.9c0,0,4.7,2.3,9.4-1.1c2.1-1.6,3.8-4.3,3.7-7.8l-1.5-1.5l1.1-1.1l4.5,4.5
				L50.3,229.4z M52.4,215h-7.2v-1.8h7.2V215z"/>
			<path class="st1" d="M42.4,197.2c0-2.3,0.8-4.4,2.2-6c-2-0.9-4.1-1.3-6.1-1.3c-0.2,0-0.4,0-0.6,0h0c-0.2,0-0.4,0-0.6,0
				c-5.6,0-11.6,3.1-15.8,11.5h21.8C42.8,200.2,42.4,198.7,42.4,197.2z"/>
			<path class="st1" d="M26.8,210.7c-1.9,0-3.4,1.5-3.4,3.4c0,1.9,1.5,3.4,3.4,3.4c1.9,0,3.4-1.5,3.4-3.4
				C30.2,212.2,28.6,210.7,26.8,210.7z M26.8,215.7c-0.9,0-1.6-0.7-1.6-1.6c0-0.9,0.7-1.6,1.6-1.6c0.9,0,1.6,0.7,1.6,1.6
				C28.3,215,27.6,215.7,26.8,215.7z"/>
			<path class="st1" d="M44.2,197.2c0,4.1,3.3,7.4,7.4,7.4c4.1,0,7.4-3.3,7.4-7.4c0-4.1-3.3-7.4-7.4-7.4
				C47.5,189.9,44.2,193.2,44.2,197.2z M51.6,199c-1,0-1.8-0.8-1.8-1.8c0-1,0.8-1.8,1.8-1.8s1.8,0.8,1.8,1.8
				C53.4,198.2,52.6,199,51.6,199z"/>
		</g>
		<path class="st1" d="M79.5,201.8c0-0.8,0-1.3-0.1-1.6c-0.2-2-1.2-3-3.1-3.1c-2.3-0.2-3,0.4-2.9,2.6v21.9c0,1.4-0.1,2.6,1.1,3.1
			c2.3,0.8,5-0.7,5-3V201.8z M86.5,199.8v21.9c0,2.1-0.5,4-1.5,5.6c-3.7,5.6-6,4.6-16.7,4.6H68c-0.6,0-1-0.2-1.2-0.4
			c-0.5-0.5-0.5-1.2-0.5-3.3v-34.9c0-0.9,0.1-1.6,0.1-2.1c0.2-1.4,1.5-1.3,2.6-1.3c5.5-0.1,8.3-0.1,8.4-0.1c2.1,0,4,0.7,5.4,2.3
			C85.7,195.1,86.5,197.1,86.5,199.8"/>
		<path class="st1" d="M106,200.6c-0.1-1.9-0.9-2.7-2.8-3.2c-0.4-0.1-0.7-0.1-0.9-0.2c-3.3-0.4-2.7,1.2-2.7,6.2
			c0,2.6,0.1,4.3,0.1,4.4c0,1,0.5,1.6,1.5,1.9c2.2,0.5,4.3-0.8,4.7-3c0.1-0.4,0.1-0.6,0.1-0.7V200.6z M113.8,230.7
			c0.1,0.6-0.2,1.1-0.9,1.2c-1.6,0.2-3.4,0.2-5.3,0.1c-1.3-0.2-1.5-1.6-1.8-3.2c-0.2-0.9-0.6-2.5-1.2-4.8l-1.1-4.8
			c-0.2-1.1-0.5-2.7-2.3-2.4c-1.7,0.2-1.6,1.9-1.7,3.7v8.4c0,1.8,0.2,3.2-1.4,3.2c-1.4,0.1-2.8,0.1-4.2,0c-1.6-0.1-1.4-1.5-1.4-3.5
			v-35.3c0-1.5,0.1-2.4,0.4-2.7c0.5-0.5,2.3-0.4,5.7-0.4h3.1c1.5-0.1,3.2,0.2,5.1,0.7c3.2,0.8,5.6,3.6,5.7,6.9
			c0.1,1.6,0.1,5.1,0,10.6c0,1.4-0.6,2.8-1.7,4.2c-0.8,1-1,2.3-0.7,3.8c0.5,1.9,1.6,6,3.2,12.3C113.6,229.4,113.7,230.1,113.8,230.7
			"/>
		<path class="st1" d="M120.4,225.9c1.2,0.1,1.9,0.1,2,0.2c0.5,0,0.8,0.4,0.9,0.9c0.2,1.3,0.2,2.6,0,3.9c0,0.5-0.4,0.9-0.9,1
			c-1.5,0.1-2.8,0.1-4-0.1c-0.4-0.1-0.8-0.4-0.9-1c-0.2-1.2-0.2-2.5,0-3.9c0.1-0.5,0.4-0.8,0.9-0.9
			C118.5,226.1,119.1,226.1,120.4,225.9"/>
		<path class="st1" d="M77.5,241.3c0,0.2,0,0.5,0,1c0,0.9,0.2,1.7-0.8,1.7c-0.8,0-1.5,0-2.3,0c-0.9-0.1-0.7,0-0.8-2.2
			c0-1-0.8-2-2-1.9c-1.2,0.2-1.6,1.3-1.6,2.8v8.7c0,0.6,0.1,1.2,0.3,1.8c0.5,1.5,2.3,1.6,3.1,0.2c0-0.1,0.1-0.2,0.1-0.2
			c0.2-1.2,0.2-2.4,0-3.5c-0.1-0.4-0.4-0.6-0.8-0.6c-0.5-0.1-0.8-0.4-0.8-0.9c0-1.1,0-1.7,0-1.9c0-0.5,0.3-0.7,0.8-0.7
			c0.3,0,1,0,2.2,0c0.9,0,1.5,0,1.8,0c0.3,0,0.5,0.1,0.6,0.2c0.3,0.2,0.3,0.6,0.3,1.4c0,6.7,0.6,8-2,10c-2.6,2-7.2,1.5-8.9-2.3
			c-0.2-0.4-0.2-0.9-0.2-1.7v-4.8l-1.3-0.7c-0.2-0.1-0.3-0.2-0.3-0.4c0-0.2,0.1-0.3,0.3-0.4l1.3-0.7c0-2.4,0-4,0-4.9
			c0-2.3,2-5,5-4.9h1.2c1.5,0,2.8,0.6,3.9,1.9C77.2,239.2,77.5,240.2,77.5,241.3"/>
		<path class="st1" d="M87.3,248.8c-0.1-0.6-0.4-2.2-0.4-2.3c0-0.1-0.1-0.3-0.2-0.5c-0.2-0.3-0.5-0.2-0.6,0
			c-0.2,0.6-0.4,1.5-0.5,2.8c0,0.2,0,0.3,0,0.4c0,0.5,1.7,0.4,1.8,0C87.3,249.3,87.3,249.1,87.3,248.8 M92,257.8
			c-0.3,0.3-2.5,0.2-2.7,0.2c-0.3,0-0.5-0.1-0.6-0.2c-0.3-0.2-0.3-0.7-0.4-1.7c-0.1-0.5-0.1-0.8-0.2-1.1c0-0.3-0.1-1.8-1.2-1.8
			c-0.2,0-0.2,0-0.2,0c-1.6,0-1.8,0.1-2,1.6c0,0.2-0.2,1.1-0.4,2.5c-0.1,0.5-0.3,0.7-0.8,0.7c-1,0-1.7,0-2.4,0
			c-0.9,0-0.6-0.7-0.5-1.6c0.7-4.2,2.9-17.1,3.2-18.8c0.2-1,0.4-1.2,1.4-1.2H88c0.3,0,0.6,0.1,0.7,0.2c0.2,0.2,0.3,0.8,0.4,1.3
			c0.9,5.1,3,18.1,3.1,18.3C92.3,257.1,92.3,257.6,92,257.8"/>
		<path class="st1" d="M102.2,249.8c-0.3-1-1.5-1.7-2.4-1.3c-0.8,0.4-0.7,0.8-0.7,2.9c0,2.3-0.2,2.8,0.9,2.8c1,0,1.6-0.3,2-1
			C102.5,252.2,102.6,251.1,102.2,249.8 M100.9,244.7c0.4-0.1,0.7-0.3,0.9-0.6c0.3-0.6,0.5-1.2,0.5-1.9l-0.2-0.9
			c-0.2-0.8-0.8-1.2-1.6-1.3c-0.8-0.1-1.2,0.2-1.3,1C98.9,242.4,98.7,245.4,100.9,244.7 M106.3,252.9c0,1.2-0.4,2.3-1.2,3.3
			c-1.8,2.1-3.2,1.9-9,1.8c-0.3,0-0.6-0.1-0.7-0.2c-0.2-0.2-0.2-0.7-0.2-1.7v-18.2c0-0.7,0.1-1.2,0.2-1.3c0.3-0.3,1-0.2,3.3-0.2
			c0.8,0,1.4,0,1.9,0c1.4,0,2.6,0.4,3.6,1.2c2,1.7,2.6,5.9,0.8,8.4c-0.4,0.6-0.4,0.8,0.1,1.4c0.9,1.1,1.3,2.4,1.3,3.9
			C106.3,251.6,106.3,252.2,106.3,252.9"/>
		<path class="st1" d="M109.4,236.4h1c0.4,0,0.6,0.2,0.5,0.6l-0.2,1.7c-0.1,0.7-0.1,1.3-0.2,1.7c0,0.3-0.2,0.4-0.4,0.4h-1.4
			c-0.2,0-0.4-0.2-0.4-0.4l-0.3-3.2c-0.1-0.6,0-0.7,0.7-0.7H109.4z"/>
		<path class="st1" d="M123.4,253.8c-0.1,1-0.6,1.9-1.2,2.7c-1.4,1.6-2,1.4-4,1.5c-1.2,0.1-2.2-0.2-3-0.7c-0.5-0.3-0.9-0.7-1.2-1.1
			c-0.7-1.1-1.2-2.2-1.3-3.2c-0.1-0.5-0.2-1.2,0.5-1.3c1-0.2,1.7-0.2,2.1-0.2c0.6,0,0.8,0.2,1,0.8c0,0.1,0.1,0.2,0.1,0.4
			c0.1,0.4,0.2,0.6,0.3,0.9c0.5,0.9,1.1,1.2,1.9,1c0.7-0.2,1.3-1,1.3-1.8c0-1.8-0.6-2.1-2.2-3.7l-2.8-2.8c-1.5-1.6-2.1-3.5-2-5.6
			c0.2-2.4,1.7-4.1,3.6-4.6c4.5-1.1,6.5,1.9,6.8,4.5c0.1,0.4-0.1,0.6-0.4,0.7c-0.8,0.3-1.6,0.4-2.4,0.4c-0.4,0-0.6-0.2-0.7-0.5
			l-0.3-0.8c-0.7-1.6-2.6-1.3-2.8,0.4c-0.2,1.2,0.2,2.3,1.1,3.3c0.6,0.8,3,2.7,3.7,3.6C123.1,249.5,123.7,251.5,123.4,253.8"/>
	</g>
</g>
</svg>
